<?xml version="1.0"?>
<svg width="256" height="256" xmlns="http://www.w3.org/2000/svg" xmlns:svg="http://www.w3.org/2000/svg" xmlns:xlink="http://www.w3.org/1999/xlink">
 <g class="layer">
  <title>Layer 1</title>
  <rect fill="#242938" height="256" id="svg_1" rx="60" transform="matrix(1 0 0 1 0 0)" width="256"/>
  <use id="svg_20" transform="matrix(0.101451 0 0 0.101451 87.9706 75.2949)" x="-853.65" xlink:href="#svg_19" y="-477.99"/>
 </g>
 <defs>
  <symbol height="1875" id="svg_19" preserveAspectRatio="xMidYMid" viewBox="0 0 256 192" width="2500" xmlns="http://www.w3.org/2000/svg">
   <path d="m94.92,42.19l-16.96,2.75l-15.47,6.78l-13.14,8.27l-12.5,15.26l-7.06,7.48l-6.83,2.52l-1.81,-4.42l3.16,-4.56l0.71,-6.43l2.11,0.09l2.32,2.11l-0.63,-6.55l-2.56,-1.72l0.08,-2.5l-6.07,3.43l-5.5,6.49l-1.15,5.8l2.36,4.64l2.19,7.88l4.46,2.11l4.69,-0.23l4.44,-2.58l-2.96,15.05l2.96,16.74l-3.26,7.73l-10.7,11.53l1.9,6.88l5.07,7.98l9.56,6.72l5.06,0.7l5.64,0.19l-3.52,14.43l12.93,5.3l16.11,2.12l5.51,-3.6l0.42,-9.75l6.15,-10.18l0.42,-8.05l14.84,1.06l13.77,-1.27l-13.77,8.26l2.33,9.97l8.69,13.56l8.47,3.6l6.79,-2.75l2.75,-5.51l14.2,-10.81l2.75,2.33l22.26,0.85l4.45,-3.6l0.42,-6.36l-1.48,-2.76l-1.06,-17.16l-7.42,-14.84l1.27,-6.57l4.45,2.33l12.51,11.66l6.14,0.42l6.78,-2.75l6.79,-5.09l3.39,-11.02l19.92,1.27l12.08,-4.66l9.75,-9.11l6.99,-13.14l1.69,-15.47l-1.48,-18.02l-3.81,-16.1l-3.82,-5.09l-5.3,-1.7l-9.32,10.18l-8.48,2.96l-7.42,-12.29l-7.41,-6.78l-4.03,-2.54l-16.11,-13.35l-12.92,-7l-12.93,-1.06l-15.05,2.55l-13.14,4.87l-9.11,7.42l-7.21,8.69l-7.41,2.12l-12.93,12.29" fill="#FF0"/>
   <path d="m45.75,80.44c-14.52,16.93 -11.3,37.48 -7.27,57.61a92899.4,92899.4 0 0 0 -6.45,-16.28l-2.37,-14.93c0.22,-5.09 0.45,-10.18 0.68,-15.26l6.1,-14.59l9.16,-13.57l14.24,-11.87l15.61,-6.44l18.31,-2.38l-16.96,19.34c-13.62,4.41 -21.64,7.39 -31.05,18.36" fill="#FFC"/>
   <path d="m114.11,28.82c-10.09,9.85 -15.61,17.29 -22.03,28.82c-4.6,8.25 -9.75,16.19 -14.58,24.33c-2.45,4.12 -2.68,7.57 -3.41,12.32l-7.12,-8.48c1.13,-3.39 2.26,-6.79 3.39,-10.18l11.53,-20.69l24.42,-24.08c2.6,-0.68 5.2,-1.35 7.8,-2.03m49.86,-24.42c-8.08,3.03 -21.51,4.03 -22.44,13.31c-0.67,6.59 0.5,9.9 4.47,16.87c-9.81,-10.15 -12.24,-8.58 -31.21,-5.42l8.14,-11.54l14.25,-8.82l18.32,-4.07l8.48,-0.33" fill="#FFC"/>
   <path d="m186.29,129.94c2.69,1.67 2.63,2.87 2.18,4.01c2.12,-0.85 4.25,-1.7 6.37,-2.55l4.13,-5.54l3.06,-7.9l-3.91,-2.94l-17.11,2.18c-0.42,1.16 -0.85,2.31 -1.27,3.46c0.12,1.64 0.24,3.28 0.36,4.92c0.55,0.97 1.09,1.94 1.64,2.91c0.85,0.42 1.7,0.85 2.55,1.27c0.67,0.06 1.33,0.13 2,0.18m-1.59,-29.25c-8.58,2.47 -8.51,3.15 -11.05,11.66c3.35,-5.36 5.82,-8.07 11.05,-11.66m57.02,-63.67c-1.52,0.7 -3.01,1.04 -3.96,2.43c-2.05,3.01 -3.81,5.53 -7.2,7.64c-1.71,1.06 -3.48,1.75 -5.29,2.31c-1.51,0.47 -2.41,0.05 -3.69,0.97c0.76,0.13 1.52,0.27 2.28,0.4l5.02,0l6.19,-3.82l3.64,-3.82l3.01,-6.11m-136.61,19.03c-3.38,9.23 -6.32,17.14 -11.43,25.5c6.54,-7.05 10.52,-13.05 14.27,-21.03c1.45,-3.1 1.73,-6.74 5.79,-5.38c0.18,3.09 0.83,6.18 1.02,9.28c2.19,-15.72 8.37,-22.29 22.75,-28.4l-12.2,1.46l-11.46,2.55l-5.65,8.19l-3.09,7.83m27.85,-0.37c3.1,14.59 7.56,28.6 9.5,43.42c1.26,9.63 1.4,14.26 -3.45,22.57c-5.3,-0.35 -8.58,0.25 -13.71,1.93c-20.39,6.68 -32.09,16.52 -45.83,-3.29l13.16,6.2c3.13,-0.61 6.26,-1.23 9.38,-1.84c5.53,-3.22 11.05,-6.43 16.57,-9.65l12.92,-2.55l4.19,-17.47l-3.1,-23.12c-0.12,-3.64 -0.24,-7.28 -0.36,-10.92c0.24,-1.76 0.49,-3.52 0.73,-5.28m35.13,90.28c-1.72,11.86 3.94,18.23 1.6,21.5c-0.66,0.93 -1.56,2.55 -2.57,2.99c-3.58,1.58 -8.51,-0.3 -8.86,0.63l-11.83,0l-4.73,-2l7.28,-8.56c2.36,-5.15 4.73,-10.31 7.09,-15.47l4.55,-15.65l2.37,0l5.1,16.56" fill="#CC0"/>
   <path d="m148.2,111.5c0.96,5.38 2.63,6.66 5.16,11.87c-1.68,8.5 -4.39,18.61 -7.65,26.11c-1.37,3.16 -2.48,4.91 -4.9,7.35c-4.09,4.13 -8.23,7.73 -12.86,11.31c-3.34,2.57 -5.67,1.28 -9.79,0.7c-1.75,3.17 -2.24,4.94 -5.46,6.55c-4.96,2.48 -9.4,-2.86 -13.29,-6.01c2.81,4.39 5.62,8.78 8.43,13.17c1.94,1.82 3.88,3.64 5.82,5.46l4.92,0.73l6.55,-4.01c1.15,-2.18 2.31,-4.37 3.46,-6.55c2.43,-1.82 4.85,-3.64 7.28,-5.46c2.97,-2.55 5.95,-5.1 8.92,-7.65l5.64,-8.01l5.1,-9.46c2.18,-6.55 4.37,-13.1 6.55,-19.66c0.18,-2.48 0.36,-4.97 0.55,-7.46c-2.73,-1.21 -5.46,-2.43 -8.2,-3.64c-2,-1.88 -4.23,-3.46 -6.23,-5.34m-65.3,37.92c9.19,0 18.89,-0.51 27.31,-4.37c2.38,-3.57 4.73,-6.49 7.64,-9.64c-2.65,5 -3.48,7.83 -4.19,13.46l-2.73,4.01c-6.91,0.18 -13.83,0.36 -20.75,0.55c-2.24,-0.25 -4.49,-0.49 -6.73,-0.73c-0.24,-0.25 -0.49,-0.49 -0.73,-0.73c0.06,-0.85 0.12,-1.7 0.18,-2.55m-1.27,-6.37l-0.71,-6.46c-1.57,9.44 -1.2,15.78 -5.54,24.24c-3.25,3.76 -7.25,7.19 -11.83,9.02c0.39,2.32 0.5,3.77 0.28,5.47c-0.81,6.12 -13.05,3.42 -18.09,3.17l24.24,6.24l5.46,-2.18c0.61,-3.52 1.21,-7.04 1.82,-10.56l5.1,-9.46l0.91,-5.83l-1.64,-13.65m-13.65,-53.33c-0.26,4.59 -0.55,6.51 1.47,10.57c2.58,5.15 5.74,10 8.54,15.09l0.91,-10.19c-3.64,-5.16 -7.28,-10.31 -10.92,-15.47m-37.37,34.7c-0.78,1.68 -1.57,3.36 -2.36,5.03c2.17,7.31 4.1,11.93 8.23,18.31c-0.72,2.59 -1.26,3.72 -2.92,5.83c-3.63,-0.56 -6.86,-0.72 -10.54,-0.71c4.07,3.15 8.13,6.31 12.2,9.46c2,-0.36 4,-0.72 6,-1.09l6.01,-6l-8.56,-13.29c-2.68,-5.85 -5.37,-11.69 -8.06,-17.54m211.14,-89.82c2.47,11.14 5.67,21.41 5.37,32.82c-0.37,14 -3.09,31.68 -16.06,40.12c-14.52,9.45 -31.57,4.98 -47.5,0.93l19.47,8.01c6.07,0.3 12.14,0.6 18.21,0.91c4.12,-1.22 8.25,-2.43 12.37,-3.64c3.22,-2.67 6.43,-5.34 9.65,-8.01l7.28,-15.29l2.73,-17.66c-0.73,-5.76 -1.46,-11.53 -2.18,-17.29l-4.01,-17.11c-1.78,-1.26 -3.55,-2.53 -5.33,-3.79m-216.72,33.2c-6.59,4.29 -9.18,6.17 -8.46,14.12l1.97,7.15l2.79,1.89l3.45,1.15l6.24,-1.48c1.07,-3.31 2.14,-6.63 3.21,-9.94l-8.87,4.36l-2.06,0a7094.7,7094.7 0 0 0 -2.3,-3.54l2.8,-4.1l1.47,-7.81c0.63,0.19 1.26,0.39 1.89,0.58c0.77,0.6 1.54,1.2 2.3,1.8l-0.33,-4.1l-1.56,-2.63c-0.52,-0.44 -1.04,-0.88 -1.56,-1.31l-0.98,3.86m147.91,-62.67c5.85,5.43 13.03,10.16 17.71,16.8c1.81,2.57 3.82,3.88 -0.03,7.51c4.07,-1.16 5.59,-1.03 8.85,-0.64c5.93,0.72 11.48,9.15 11.84,15.19c-0.07,0.56 -1.65,1.85 -6.23,3.11c-0.09,0.18 -2.59,-0.34 -2.53,-0.17c0.48,1.3 1.11,1.5 2.09,2.11c0.21,1.45 0.34,3.69 1.33,5.27c2.88,-0.05 5.71,0.27 8.53,0.83c0.95,1.57 0.81,3.15 0.73,4.73l3.27,-0.55c-0.3,-2.48 -0.6,-4.97 -0.9,-7.46c0.97,-1.64 1.94,-3.28 2.91,-4.91l-4.19,-9.47c-2.67,-2.55 -5.34,-5.1 -8.01,-7.64l-0.77,-0.04a71383.19,71383.19 0 0 1 -9.01,-5.53l-14.69,-12.02l-10.9,-7.12m9.85,44.85c-0.3,0.54 -0.77,1.4 -1.37,2c2.44,2.3 3.64,3.85 4.51,7.11c-2.75,1.36 -5.51,2.73 -8.26,4.1l-7,6.7c-3.07,-1.65 -3.83,-2.92 -5.31,-6.07c-1.73,0.46 -3.37,0.9 -4.8,0.38c0.91,0.01 1.46,-0.22 2.37,-0.78l4.45,-4.62c2.62,-1.99 5.24,-3.97 7.86,-5.96l5.14,-1.67c0.66,-0.27 1.76,-0.92 2.42,-1.19" fill="#CC0"/>
   <path d="m190.4,58.2c-8.77,4.72 -17.16,9.46 -21.64,18.43c0,-11.38 11.42,-16.39 21.64,-18.43m-23.38,-22.38c-6.51,4.44 -11.11,13.39 -10.53,22.12c-2.12,-7.56 -1.37,-14.7 5.14,-19.92c1.09,-0.53 2.19,-1.07 3.29,-1.6c0.7,-0.2 1.4,-0.4 2.1,-0.6" fill="#CC0"/>
   <path d="m254.6,56.42c-1.18,-7.44 -3.13,-14.66 -5.85,-19.86c-0.33,-0.63 -0.83,-1.28 -1.45,-1.89c-1.35,-1.33 -3.35,-2.59 -5.41,-3.3c-2.19,-0.75 -4.49,-0.91 -6.32,0.05c-0.48,0.25 -0.92,0.57 -1.31,0.97c-1.19,1.2 -2.19,2.66 -3.19,4.12c-1.11,1.63 -2.23,3.27 -3.57,4.41c-1.55,1.33 -3.5,2.13 -5.33,2.87a36.12,36.12 0 0 0 -2.77,-5.39c-1.26,-2 -2.68,-3.87 -4.25,-5.74a23.55,23.55 0 0 0 -3.88,-3.71c-1.36,-1.03 -2.74,-1.9 -4.36,-2.91c-4.33,-2.71 -8.01,-5.94 -11.77,-9.24c-1.71,-1.5 -3.43,-3.01 -5.12,-4.4c-8.95,-7.38 -17.3,-10.96 -26.22,-11.52c-8.87,-0.56 -18.23,1.88 -29.29,6.53c-5.34,2.25 -9.3,4.9 -12.75,8.09c-3.3,3.05 -6.1,6.56 -9.17,10.67c-1.79,0.12 -3.38,0.39 -5,1.04c-1.78,0.71 -3.58,1.87 -5.73,3.76a129.58,129.58 0 0 0 -4.4,4.07a151.88,151.88 0 0 0 -3.87,3.9c-10.07,1.61 -18.27,3.4 -25.61,6.24c-7.51,2.91 -14.13,6.92 -20.93,12.94a55.04,55.04 0 0 0 -7.29,7.83c-2.07,2.71 -3.84,5.55 -5.39,8.56c-1.36,1.5 -2.72,3.02 -4.2,4.35c-1.43,1.3 -2.97,2.39 -4.69,3.05l0.01,0c-1,0.38 -1.42,0.61 -1.46,0.59c-0.05,-0.03 -0.08,-0.17 -0.15,-0.45c2.47,-2.35 2.86,-5.81 3.08,-9.25c0.3,0.36 0.58,0.79 0.88,1.25c0.32,0.5 0.66,1.02 1.06,1.53l1.67,2.11l0.59,-2.64c0.5,-2.21 0.87,-5.15 0.29,-7.7c-0.37,-1.65 -1.14,-3.13 -2.48,-4.17c0.13,-0.34 0.25,-0.64 0.37,-0.95c0.42,-1.07 0.85,-2.18 1.22,-3.22l0.73,-2.06l-2.16,0.37c-2.88,0.5 -9.05,3.89 -13.4,8.41c-1.62,1.67 -3.01,3.53 -3.92,5.47c-0.95,2.02 -1.37,4.14 -1,6.26c0.32,1.85 1.24,3.67 2.93,5.38c0.3,1.24 0.59,2.31 0.89,3.28c0.35,1.1 0.72,2.09 1.19,3.06c1.26,2.63 3.28,4.24 5.62,4.99c1.87,0.6 3.95,0.63 5.98,0.18a54.69,54.69 0 0 0 -0.74,7.34c-0.13,3.43 0,7.23 0.37,11.63c0.09,0.97 0.21,2.03 0.37,3.19c0.14,0.99 0.31,1.95 0.49,2.91c-0.38,1.04 -0.77,2.08 -1.15,3.12l-1.77,4.84l-3.91,3.87c-1.22,1.21 -2.44,2.41 -3.65,3.62c-0.1,0.1 -0.52,0.49 -0.89,0.85c-2.46,2.37 -2.95,2.84 -2.25,7.02a25.45,25.45 0 0 0 2.58,7.65c1.21,2.3 2.84,4.55 4.92,6.64c2.6,2.6 6.86,5.84 11.32,7.54c2.55,0.96 5.18,1.44 7.65,1.04c-0.13,0.38 -0.25,0.76 -0.39,1.14a43.09,43.09 0 0 1 -1.3,3.2c-3.02,6.63 0.08,10.1 4.92,12.3c2.41,1.1 5.28,1.85 7.95,2.55c0.55,0.14 1.09,0.28 1.78,0.47c3.16,0.85 8.62,2.42 13.61,2.74c5.44,0.34 10.35,-0.78 11.67,-5.67c0.52,-1.94 0.82,-3.42 0.95,-4.87c0.11,-1.35 0.07,-2.71 -0.09,-4.4c1.55,-3.44 2.21,-4.41 3.34,-6.06c0.23,-0.33 0.49,-0.72 0.58,-0.85c1.21,-1.8 1.78,-3.08 1.99,-4.52c0.2,-1.39 0.03,-2.78 -0.22,-4.9c-0.03,-0.2 -0.06,-0.49 -0.11,-0.88a78.13,78.13 0 0 0 9.45,0.65c1.58,0.01 3.17,-0.04 4.75,-0.12c-0.4,0.2 -0.8,0.41 -1.23,0.63l-0.59,0.31c-4.21,2.16 -4.38,6.25 -3.07,10.47c1.19,3.79 3.63,7.67 5.16,10.03c3.22,4.97 6.3,9.17 10.02,11.45c3.91,2.39 8.37,2.67 14.13,-0.44c2.93,-1.59 3.85,-3.21 5.1,-5.39c0.38,-0.66 0.8,-1.39 1.27,-2.1c1.21,-0.8 4.22,-3.29 7.18,-5.73c1,-0.83 2.01,-1.66 3.14,-2.59c0.79,0.58 1.73,0.98 2.87,1.25c1.48,0.35 3.25,0.51 5.36,0.67c1.59,0.11 6.75,0.11 10.08,0.11c1.03,0 1.89,0 2.4,0c3.44,0.02 6.22,-0.16 8.32,-1.35c2.24,-1.27 3.57,-3.52 3.86,-7.55c0.12,-1.79 0.15,-2.89 -0.1,-4.02c-0.23,-1.05 -0.69,-2.01 -1.46,-3.41a9145.09,9145.09 0 0 1 -0.14,-5.23c-0.05,-1.84 -0.1,-3.69 -0.15,-5.54c-0.06,-2.18 -0.3,-3.95 -0.74,-5.69c-0.44,-1.73 -1.07,-3.39 -1.9,-5.39a90.67,90.67 0 0 1 -1.48,-3.8l-1.21,0.44l0.19,-0.07l1.02,-0.37l0,-0.01c-0.72,-1.94 -1.43,-3.83 -2.43,-5.85c0.07,-0.39 0.13,-0.81 0.2,-1.26l1.92,1.85l2.83,2.73c2.15,2.08 4.13,3.97 6.44,5.33c2.4,1.42 5.1,2.24 8.59,2.07c3.65,-0.17 7.56,-1.71 10.78,-4.08c3.11,-2.3 5.61,-5.4 6.66,-8.83l0.9,-2.98l0.72,-2.37c5.13,0.86 10.63,1.14 15.94,0.59c5.12,-0.54 10.08,-1.85 14.35,-4.12c6.27,-3.35 10.98,-8.29 14.36,-14.15l0.01,0c3.78,-6.55 5.89,-14.26 6.7,-22.2c0.64,-6.37 0.29,-15.03 -1.04,-23.38zm-66.38,53.52c-2.96,-0.99 -5.01,-2.44 -7.6,-4.08c0.7,3.19 1.02,6.55 0.08,9.73c-1.49,5.04 -3.9,13.29 2.95,14.81c2.6,0.58 3.79,0.5 7.46,-1.4c-2.97,0.67 -4.48,0.51 -6.52,0.13c-1.86,-0.34 -2.84,-1.52 -3.36,-2.91c0.65,0.47 1.71,0.72 3.51,1.16c5.08,1.22 9.91,-1.22 10.86,-4.74c0.55,-2.06 0.46,-3.14 1.62,-5.94c1.06,0.33 2.14,0.62 3.25,0.89l-1.88,6.15c-1.63,5.32 -7.99,9.61 -13.6,9.51c-5.18,-0.09 -8.47,-3.34 -12.05,-6.52c-2.47,-2.2 -4.84,-4.3 -7.2,-6.38c-6.45,-2.04 -11.62,-4.42 -17.62,-8.85c4.27,5.01 7.16,7.78 13.11,10.28c-0.87,8.82 -3.93,15.25 -6.55,23.69c-1.18,3.82 -10.52,19.11 -13.11,20.6c-1.84,1.06 -13.4,10.8 -15.57,12.08c-1.62,2.15 -3.04,5.13 -5.48,6.41c-7.42,3.92 -12.18,-3.59 -16.18,-9.93c-1.81,-2.89 -6.86,-11.21 -2.46,-13.55c4.16,-2.2 6.49,-3.77 10.73,-6.56c0.63,1.14 1.7,2.23 2.39,3.37l-0.46,-3.73c-0.28,-2.25 -0.27,-4.07 -0.09,-6.34c0.18,-2.19 0.35,-4.38 0.52,-6.57c-0.64,2.22 -1.91,4.45 -2.55,6.68c-0.26,0.89 -0.47,1.61 -0.59,2.28c-9.52,1.95 -18.98,2.07 -28.5,0.37c-0.61,-3.53 -1.35,-7.2 -1.97,-9.84c-0.19,2.95 -0.07,11.11 -0.09,15.68c-0.01,3.53 -0.16,4.75 -1.98,7.76c-1.71,2.81 -2.43,3.45 -4.83,8.22c0.2,3 0.21,4.99 -0.59,7.84c-1.33,4.74 -14.72,1.07 -18.25,0.1c-4.35,-1.19 -13.35,-2.96 -11.09,-8.76c1.99,-5.11 3.26,-10.49 4.23,-17.63c-7.97,-11.48 -15.38,-27.22 -16.81,-41.16c-1.1,-10.83 -0.44,-17.49 1.9,-24.11c3.72,-10.49 8.91,-19.57 17.24,-26.89c11.24,-9.86 21.75,-13.82 38.2,-16.32c-3.96,4.43 -7.87,9.11 -12.14,14.13c-4.31,5.08 -6.88,10.21 -9.62,15.78c-3.79,7.68 -3.71,10.6 1.31,17.34c4.33,5.81 6.67,8.42 8.56,14.11c-1.56,3.22 -2.13,5.93 -2.66,10.33c5.3,5.79 9.24,9.76 14.38,10.98c5.05,1.2 9.26,0.97 13.78,-1.34c10.03,-5.13 19.3,-11.75 30.61,-12.02c5.24,-12.87 4.71,-23.62 2.2,-36.06c-1.72,-8.5 -2.41,-16.55 -2.94,-25.22c-2.12,8.93 -2.52,16.77 -0.95,25.67c1.9,10.71 3.38,22.55 -1.9,31.96c-10.23,0.78 -19,7.01 -28.21,11.78c-3.71,1.92 -7.57,2.11 -11.67,0.98c-3.81,-1.04 -6.38,-3.56 -10.48,-8.29c-0.06,-4.75 1.01,-6.94 3.19,-11.24c3.51,-6.91 7.37,-13.34 11.62,-20.14c-5.2,6.28 -10.12,11.52 -14.21,17.82c-1.57,-4.45 -3.8,-6.71 -7.51,-11.73c-3.61,-4.9 -3.99,-7.04 -1.29,-12.71c2.72,-5.7 5.03,-10.7 9.66,-15.7c7.99,-8.64 15.32,-18.25 24.07,-26.76c4.75,-4.62 6.67,-4.46 12.97,-5.41c5.7,-0.86 11.26,-1.95 17.06,-3.3c-5.61,0.52 -11.04,0.71 -16.51,0.85l-0.17,0c5.38,-6.87 8.5,-10.69 17.24,-14.49c21.51,-9.34 35.17,-10.35 52.07,3.85c4.38,3.68 8.2,7.26 12.64,10.43c-1.61,0.14 -3,0.43 -4.83,1.15c2.23,-0.43 4.81,-0.01 7.13,0.42c0.65,0.42 1.32,0.83 2,1.24c3.13,1.84 4.91,2.86 7.03,5.82c2.24,3.12 4.11,6.24 5.76,9.67c-1.08,-0.38 -1.99,-0.71 -2.79,-0.95a6,6 0 0 0 -5.66,0.35l-0.13,0.06c-1.73,0.85 -4.42,1.81 -6.22,2.1c0.92,0.32 2.95,0.44 3.9,0.06c0.13,-0.05 0.26,-0.09 0.4,-0.12a6,6 0 0 0 -0.8,2.47a6,6 0 0 0 0.64,3.33l0,0.01c0.16,0.38 0.39,0.73 0.64,0.99c-0.82,0.3 -1.66,0.65 -2.53,1.02c4.01,-0.61 7.63,-0.71 11.54,-0.2c0.26,1.24 0.52,2.54 0.76,3.87l-1.46,0.12a5.17,5.17 0 0 0 -0.11,0.01c-1.85,-1.48 -3.92,-1.23 -6.73,-0.59c-8.57,1.95 -6.56,6.76 -10.5,14c4.09,-5 3.79,-10.23 10.46,-11.81c1.55,-0.37 2.61,-0.83 3.66,-0.67c-1.89,0.95 -3.53,2.53 -4.18,4.36c-1.83,5.17 -0.69,9.52 -2.7,14.35c2.49,-4.31 2.64,-8.53 4.87,-13.07c0.8,-1.63 3.76,-4.24 5.59,-4.28l1.5,-0.03c0.44,2.87 0.7,5.72 0.53,8.09c-0.31,4.32 -1.43,10.73 -2.1,13.18c2.26,-2.9 3.28,-9.04 4.27,-13.37c1.04,-4.5 0.78,-9.9 -0.13,-14.74c-1.24,-6.64 5.6,-5.56 9.57,-8.69c2.91,-2.3 4.92,-5.97 7.6,-8.57c2.65,-2.58 6.83,1.21 7.87,3.73c4.52,10.95 6.58,28.17 5.39,39.2c-1.34,12.39 -7.32,25.9 -18.24,32c-13.92,7.77 -30.34,3.02 -44.17,-1.64zm-19.78,55c-0.46,5.11 -2.16,5.44 -6.65,5.36c-2.04,-0.03 -10.15,-0.07 -12.21,-0.25c-2.91,-0.25 -4.55,-0.51 -5.43,-1.17c4.57,-3.36 12.34,-17.21 13.85,-21.98c1.6,-5.04 3.36,-9.44 4.66,-14.1c0.6,1.95 1.07,3.88 1.95,5.94c1.45,3.46 2.17,5.59 2.27,9.3l0.33,11.73c1.25,2.2 1.45,2.66 1.23,5.16l0,0.01zm-137.6,-38.71c2.91,10.05 7.85,19.92 13.33,28.21l0,0.15c-0.34,1.42 -0.74,2.81 -1.57,3.93c-3.92,5.24 -13.89,-2.46 -16.77,-5.4c-3.16,-3.22 -5.27,-7.03 -5.77,-10.61c-0.37,-2.61 -0.01,-2.67 1.81,-4.52l7.36,-7.45l1.61,-4.31zm-5.54,-63.16c-0.75,1.6 -1.27,2.81 -1.63,4.06c-1.57,5.4 0.7,10.21 -4.2,14.13c2.31,4.64 2.2,6.5 7.56,4.35c2.06,-0.83 3.77,-1.99 5.29,-3.36a99.36,99.36 0 0 0 -2.03,5.8c-0.11,0.33 -0.21,0.66 -0.31,0.99c-3.83,1.63 -8.87,2.66 -10.79,-1.36c-0.94,-1.96 -1.47,-3.88 -2.15,-6.35c-6.31,-6.53 3.12,-15.16 8.26,-18.26zm3.1,6.93c-0.78,-0.78 -1.4,-1.31 -2.41,-1.19c0.08,-0.66 0.2,-1.3 0.36,-1.9c0.08,-0.31 0.16,-0.61 0.25,-0.91c1.31,0.76 1.65,2.14 1.8,4zm189.18,-24.42c0.23,0.51 0.47,1.02 0.7,1.53c-0.19,0.14 -0.37,0.29 -0.54,0.45a6.1,6.1 0 0 0 -1.32,-1.94c0.37,-0.02 0.76,-0.03 1.16,-0.04zm-182.15,29.67l0,0l0,0zm-20.53,6.94zm69.03,72.17l0,0l0,0zm56.86,16.98l0,0l0,0zm23.11,-43.93l0.01,0l0,0l-0.01,0zm-137.95,-44.3l0,0l-0.04,-0.11l0.04,0.11zm221.85,18.24l0.03,0.02l-0.03,-0.02zm-244.11,-19.81c1,-11.37 3.21,-16.28 11.29,-24.83c-10.13,7.14 -12.66,10.38 -11.29,24.83"/>
   <path d="m1.07,72.25c1.12,-5.11 2.16,-7.04 5.31,-11.24c-5.11,3.57 -5.78,5.04 -5.31,11.24m118.85,-71.32c-6.06,1.47 -7.22,2.59 -9.04,8.54c2.9,-4.36 4.57,-5.78 9.04,-8.54"/>
   <path d="m129.5,0.07c-12.04,2.95 -15.58,5.05 -19.58,19c5.08,-10.22 8.93,-13.98 19.58,-19m25.92,50.85c1.28,-5.68 3.56,-11.16 12.39,-15.4c-11.7,2.93 -13.89,7.85 -12.39,15.4m74.45,0.4c6.93,-2.47 10.27,-8.04 11.92,-14.6c-2.71,5.5 -6.89,10.09 -12.58,12.9c-3.05,1.51 -5,0.99 -8.4,0.66c3.46,1 5.66,2.25 9.06,1.04m-47.21,5.57a7.87,7.87 0 0 0 -4.41,-4.01c1.7,-0.91 3.37,-1.86 4.67,-3.05c-3.81,1.77 -8.25,1.34 -11.53,3.55c-2.88,1.95 -6.86,8.12 -9.79,10.74c2.12,-0.83 4.17,-2.25 6.05,-3.75a7.85,7.85 0 0 0 4.22,6.9a17.7,17.7 0 0 0 -2.56,4.67c5.58,-6.61 13.67,-11.61 21.28,-13.74c-2.13,-0.03 -4.64,0.37 -7.21,1.21a7.83,7.83 0 0 0 -0.72,-2.52m-8.02,49.96c-0.27,1.71 -0.64,3.84 -0.92,5.55c0.73,-1.94 1.6,-4.19 2.44,-6.04c0.9,-1.95 1.4,-2.14 3.3,-3.17c1.34,-0.73 3.79,-1.74 5.13,-2.47c-1.38,0.24 -3.86,0.74 -5.25,0.98c-3.69,0.62 -4.13,1.51 -4.7,5.15m-63.14,-66.1c-4.29,4.24 -8.46,18.79 -9.79,24.61c2.1,-4.84 7.35,-18.37 11.37,-21.81c1.11,-0.95 1.89,-1.53 2.73,-1.96c-2.89,4.84 -2.67,6.04 -1.66,12.51c0.86,-6.58 3.13,-9.12 6.87,-14.03c4.09,-1.03 7.92,-2.26 12.12,-3.9a777.87,777.87 0 0 1 -14.2,1.47c-3.98,0.38 -4.62,0.32 -7.44,3.11"/>
   <path d="m169.94,65.51a3.29,3.29 0 0 1 1.56,-4.38a3.31,3.31 0 0 1 4.57,2.02c-1.56,1.17 -3,2.54 -4.2,4.12c-0.81,-0.32 -1.53,-0.92 -1.93,-1.76m36.63,-14.17c0.14,-1.35 1.29,-2.35 2.65,-2.22a2.48,2.48 0 0 1 2.22,2.7a2.48,2.48 0 0 1 -0.22,0.8c-1.24,0.22 -2.48,0.58 -3.76,1.05c-0.54,-0.55 -0.96,-1.55 -0.89,-2.33" fill="#FFC"/>
  </symbol>
 </defs>
</svg>